<?xml version="1.0" standalone="no"?>
<!DOCTYPE svg PUBLIC "-//W3C//DTD SVG 20010904//EN"
 "http://www.w3.org/TR/2001/REC-SVG-20010904/DTD/svg10.dtd">
<svg version="1.0" xmlns="http://www.w3.org/2000/svg"
 width="224.000000pt" height="224.000000pt" viewBox="0 0 224.000000 224.000000"
 preserveAspectRatio="xMidYMid meet">
<metadata>
Created by potrace 1.11, written by Peter Selinger 2001-2013
</metadata>
<g transform="translate(0.000000,224.000000) scale(0.100000,-0.100000)"
fill="#000000" stroke="none">
<path d="M1666 2069 c-15 -25 -22 -29 -40 -23 -11 4 -36 7 -53 8 -18 1 -33 5
-33 9 0 5 -5 5 -10 2 -6 -4 -8 -9 -6 -13 2 -4 -7 -15 -19 -25 -15 -10 -26 -13
-30 -7 -3 5 -14 10 -23 10 -9 0 -29 12 -45 28 -28 26 -29 26 -22 4 3 -12 17
-41 30 -64 19 -33 21 -46 13 -69 -5 -16 -14 -29 -19 -29 -5 0 -9 -7 -9 -15 0
-8 -4 -15 -10 -15 -5 0 -10 6 -10 14 0 8 5 18 10 21 20 13 2 125 -21 125 -4 0
-6 6 -3 13 3 8 -2 20 -11 27 -10 8 -15 9 -15 1 0 -6 4 -11 10 -11 5 0 7 -6 4
-13 -3 -9 -16 -12 -37 -9 l-32 4 34 -30 33 -29 -23 -16 c-19 -14 -21 -20 -11
-41 9 -21 7 -27 -20 -52 -21 -20 -29 -23 -25 -11 4 9 2 17 -4 17 -5 0 -12 -13
-15 -30 -4 -16 -13 -30 -20 -30 -8 0 -14 -4 -14 -10 0 -13 13 -13 27 1 18 18
24 -5 12 -42 -7 -19 -18 -39 -25 -45 -14 -11 -8 -54 7 -54 5 0 9 -9 9 -21 0
-35 23 -15 40 35 15 47 30 52 30 12 1 -29 40 82 40 114 0 26 15 58 23 50 3 -3
-6 -45 -19 -95 -26 -100 -30 -161 -12 -167 8 -3 7 -11 -5 -28 -24 -34 -22 -84
3 -101 18 -12 19 -18 10 -49 -6 -19 -15 -57 -20 -84 -11 -52 -52 -103 -58 -72
-5 22 -87 23 -96 0 -3 -8 -11 -12 -17 -9 -6 4 -8 13 -5 20 3 8 -4 17 -15 20
-13 4 -18 12 -15 22 4 9 1 13 -6 11 -6 -2 -16 -17 -21 -34 -5 -16 -16 -37 -24
-46 -10 -11 -13 -27 -9 -45 9 -41 -7 -89 -28 -85 -9 2 -33 -11 -52 -28 -31
-27 -43 -31 -84 -29 -51 3 -82 -13 -74 -36 3 -7 1 -16 -5 -20 -16 -9 -28 30
-36 118 -4 42 -11 77 -16 77 -8 0 -29 -62 -29 -90 -1 -9 -6 -6 -14 9 -10 18
-15 20 -19 10 -4 -10 -6 -10 -6 -1 -1 6 -10 12 -21 12 -22 0 -25 12 -10 40 7
13 7 21 0 25 -6 3 -13 -2 -16 -12 -3 -10 -10 -26 -15 -35 -6 -12 -6 -18 2 -18
13 0 39 -25 39 -38 0 -5 7 -15 15 -22 21 -17 19 -40 -4 -40 -10 0 -26 -11 -35
-25 -9 -14 -21 -23 -26 -20 -5 3 -11 -5 -13 -17 -2 -13 -5 5 -6 39 0 34 3 65
9 68 6 3 10 12 10 18 -1 27 -30 -29 -30 -57 0 -44 -10 -76 -24 -76 -21 0 -68
-63 -107 -142 -20 -43 -34 -80 -29 -83 5 -3 22 6 38 20 33 28 48 31 55 13 5
-17 37 8 37 28 0 17 -17 18 -23 2 -2 -7 -7 -11 -10 -7 -8 7 34 99 45 99 4 0 8
-4 8 -10 0 -5 -4 -10 -10 -10 -5 0 -10 -10 -9 -22 l0 -23 9 23 c5 12 14 22 19
22 8 0 31 -104 31 -143 0 -9 4 -17 10 -17 12 0 6 -186 -7 -218 -11 -29 9 -158
32 -201 18 -35 19 -63 4 -78 -15 -15 -3 -75 24 -133 17 -35 28 -46 50 -48 35
-4 43 17 21 59 -9 18 -18 57 -20 86 -5 64 21 197 44 234 54 85 75 110 103 125
52 27 197 178 207 216 l8 33 80 6 c70 6 135 19 180 36 18 7 18 -14 -1 -51 -8
-15 -15 -44 -15 -62 0 -21 -5 -34 -13 -34 -18 0 -47 -53 -47 -87 0 -57 76 -95
113 -58 26 26 38 101 36 233 0 59 4 98 11 107 16 19 49 19 74 0 12 -9 43 -15
80 -15 51 -1 64 -4 77 -23 25 -35 49 -117 49 -168 0 -27 5 -71 11 -99 8 -39 8
-54 -1 -66 -28 -33 -19 -124 14 -146 16 -11 64 -10 87 2 16 9 19 22 19 75 0
36 -4 65 -8 65 -18 0 -38 56 -32 90 4 21 1 41 -6 50 -19 24 -48 140 -49 200
-2 79 -1 76 -47 104 -54 32 -66 71 -61 196 4 71 1 97 -9 105 -7 5 -19 21 -26
35 -7 14 -23 44 -36 66 -23 42 -38 84 -29 84 3 0 16 -9 30 -20 14 -11 35 -20
47 -20 27 1 56 23 56 43 0 9 5 19 10 22 16 10 12 67 -6 87 -10 10 -19 40 -22
68 -2 27 -8 47 -13 45 -11 -7 -16 4 -24 55 l-6 45 15 -29 c9 -15 16 -35 16
-44 0 -10 3 -12 9 -6 6 5 11 32 13 59 2 28 9 56 15 63 16 17 16 24 0 46 -13
17 -16 17 -48 3 -37 -16 -123 -32 -101 -18 19 11 -14 27 -62 30 -16 1 -17 4
-8 13 10 10 15 10 22 -2 8 -12 10 -12 10 4 0 17 6 18 55 13 48 -5 56 -3 66 14
6 13 17 18 26 15 9 -4 13 -1 10 6 -2 7 4 36 14 63 22 59 24 79 6 93 -10 9 -17
4 -31 -19z m-116 -109 c0 -5 -4 -10 -10 -10 -5 0 -10 5 -10 10 0 6 5 10 10 10
6 0 10 -4 10 -10z m-95 -119 c3 -5 2 -12 -3 -15 -5 -3 -9 1 -9 9 0 17 3 19 12
6z m205 -18 c0 -10 -5 -25 -10 -33 -7 -11 -10 -7 -10 18 0 17 5 32 10 32 6 0
10 -8 10 -17z m-205 -44 c-5 -16 -4 -19 5 -14 9 5 11 4 6 -4 -4 -6 -12 -9 -17
-6 -13 8 -11 45 2 45 6 0 8 -9 4 -21z m152 -41 c-3 -8 -6 -5 -6 6 -1 11 2 17
5 13 3 -3 4 -12 1 -19z m-415 -567 c-3 -23 1 -32 19 -42 13 -7 31 -20 40 -31
9 -10 24 -18 33 -18 9 0 16 -4 16 -10 0 -5 7 -10 16 -10 8 0 13 -4 9 -9 -3 -5
3 -11 12 -14 14 -3 12 -6 -11 -16 -21 -9 -32 -9 -42 0 -11 9 -18 8 -31 -2 -15
-13 -16 -11 -9 14 7 30 -7 37 -23 10 -8 -14 -12 -15 -22 -6 -9 9 -16 10 -26 2
-11 -9 -13 2 -13 59 0 77 6 102 24 102 8 0 11 -11 8 -29z m-232 -141 c0 -12
-27 -12 -55 0 -16 7 -13 9 18 9 20 1 37 -3 37 -9z m-270 -85 c0 -8 -4 -15 -9
-15 -13 0 -22 16 -14 24 11 11 23 6 23 -9z m178 -210 c11 -35 8 -84 -5 -71
-10 9 -32 -14 -27 -28 3 -7 -6 -21 -18 -32 l-23 -19 19 23 c11 12 17 24 14 27
-11 11 -39 -8 -53 -36 -19 -35 -19 -43 0 -35 21 8 19 -2 -11 -37 l-26 -30 7
39 c4 21 18 73 32 114 48 140 67 158 91 85z"/>
<path d="M1220 1575 c-17 -21 -5 -31 15 -12 8 9 15 18 15 21 0 11 -18 6 -30
-9z"/>
<path d="M1250 1449 c0 -11 27 -12 34 -1 2 4 -4 9 -15 9 -10 1 -19 -2 -19 -8z"/>
<path d="M806 1298 c-7 -28 -8 -83 -1 -76 9 9 23 98 15 98 -4 0 -10 -10 -14
-22z"/>
<path d="M1040 1269 c-7 -11 -9 -23 -6 -27 3 -3 6 0 6 6 0 6 7 18 16 26 8 9
11 16 5 16 -6 0 -15 -9 -21 -21z"/>
<path d="M690 1220 c0 -5 5 -10 10 -10 6 0 11 -12 11 -27 1 -22 2 -23 6 -8 3
11 10 23 17 27 7 5 5 8 -6 8 -10 0 -18 5 -18 10 0 6 -4 10 -10 10 -5 0 -10 -4
-10 -10z"/>
</g>
</svg>
